# xmcd
#
# Track frame offsets:
#	180
#	14356
#	31282
#	46560
#	64497
#	79785
#	96213
#	105316
#	119659
#	135427
#
# Disc length: 2102 seconds
#
# Revision: 0
# Processed by: cddbd v1.5.2PL0 Copyright (c) Steve Scherf et al.
# Submitted via: audiograbber 1.83.01
#
DISCID=7908340a
DTITLE=Various Artist - New Country - Volume 4 - Number 6
DYEAR=1997
DGENRE=Country
TTITLE0=Trace Adkins - I Left Something Turned On At Home
TTITLE1=Lee Ann Womack - Never Again, Again
TTITLE2=The Dead Reckoners - I Desire Fire
TTITLE3=Bob Woodruff - That Was Then
TTITLE4=Chris Thile - Road To Wrigley
TTITLE5=Ray Stevens - Too Drunk To Fish
TTITLE6=Rosie Flores and Ray Campi - Separate Ways
TTITLE7=Kim Richey - Why Can't I Say Goodnight
TTITLE8=Chet Atkins with Tommy Emmanuel - Smokey Mountain Lullaby
TTITLE9=Roy D. Mercer - Dead Rooster
EXTD=
EXTT0=
EXTT1=
EXTT2=
EXTT3=
EXTT4=
EXTT5=
EXTT6=
EXTT7=
EXTT8=
EXTT9=
PLAYORDER=
